<mxfile host="app.diagrams.net" agent="Mozilla/5.0 (X11; Linux x86_64; rv:134.0) Gecko/20100101 Firefox/134.0" version="28.2.4">
  <diagram name="PÃ¡gina-1" id="0qYHB1E_imORCxgHfyJZ">
    <mxGraphModel dx="1426" dy="754" grid="1" gridSize="10" guides="1" tooltips="1" connect="1" arrows="1" fold="1" page="1" pageScale="1" pageWidth="827" pageHeight="1169" math="0" shadow="0">
      <root>
        <mxCell id="0" />
        <mxCell id="1" parent="0" />
        <mxCell id="JmTXME2zgX_H3jDaWqj7-30" value="PLATOS" style="swimlane;childLayout=stackLayout;horizontal=1;startSize=50;horizontalStack=0;rounded=1;fontSize=14;fontStyle=0;strokeWidth=2;resizeParent=0;resizeLast=1;shadow=0;dashed=0;align=center;arcSize=4;whiteSpace=wrap;html=1;labelBackgroundColor=none;fillColor=#F2CC8F;strokeColor=#E07A5F;fontColor=#393C56;" vertex="1" parent="1">
          <mxGeometry x="50" y="40" width="160" height="120" as="geometry" />
        </mxCell>
        <mxCell id="JmTXME2zgX_H3jDaWqj7-31" value="&lt;div&gt;NOMBRE&lt;/div&gt;&lt;div&gt;FOTO&lt;/div&gt;&lt;div&gt;DESCRIPCION&lt;/div&gt;&lt;div&gt;PRECIO FINAL&lt;br&gt;&lt;/div&gt;" style="align=left;strokeColor=none;fillColor=none;spacingLeft=4;spacingRight=4;fontSize=12;verticalAlign=top;resizable=0;rotatable=0;part=1;html=1;whiteSpace=wrap;labelBackgroundColor=none;fontColor=#393C56;" vertex="1" parent="JmTXME2zgX_H3jDaWqj7-30">
          <mxGeometry y="50" width="160" height="70" as="geometry" />
        </mxCell>
        <mxCell id="JmTXME2zgX_H3jDaWqj7-32" value="CATEGORIA" style="swimlane;childLayout=stackLayout;horizontal=1;startSize=50;horizontalStack=0;rounded=1;fontSize=14;fontStyle=0;strokeWidth=2;resizeParent=0;resizeLast=1;shadow=0;dashed=0;align=center;arcSize=4;whiteSpace=wrap;html=1;labelBackgroundColor=none;fillColor=#F2CC8F;strokeColor=#E07A5F;fontColor=#393C56;" vertex="1" parent="1">
          <mxGeometry x="50" y="360" width="160" height="120" as="geometry" />
        </mxCell>
        <mxCell id="JmTXME2zgX_H3jDaWqj7-33" value="&lt;div&gt;NOMBRE&lt;/div&gt;&lt;div&gt;DESCRIPCION&lt;br&gt;&lt;/div&gt;" style="align=left;strokeColor=none;fillColor=none;spacingLeft=4;spacingRight=4;fontSize=12;verticalAlign=top;resizable=0;rotatable=0;part=1;html=1;whiteSpace=wrap;labelBackgroundColor=none;fontColor=#393C56;" vertex="1" parent="JmTXME2zgX_H3jDaWqj7-32">
          <mxGeometry y="50" width="160" height="70" as="geometry" />
        </mxCell>
        <mxCell id="JmTXME2zgX_H3jDaWqj7-35" value="" style="edgeStyle=orthogonalEdgeStyle;rounded=0;orthogonalLoop=1;jettySize=auto;html=1;labelBackgroundColor=none;strokeColor=#E07A5F;fontColor=default;" edge="1" parent="1" source="JmTXME2zgX_H3jDaWqj7-34" target="JmTXME2zgX_H3jDaWqj7-31">
          <mxGeometry relative="1" as="geometry" />
        </mxCell>
        <mxCell id="JmTXME2zgX_H3jDaWqj7-36" value="" style="edgeStyle=orthogonalEdgeStyle;rounded=0;orthogonalLoop=1;jettySize=auto;html=1;labelBackgroundColor=none;strokeColor=#E07A5F;fontColor=default;" edge="1" parent="1" source="JmTXME2zgX_H3jDaWqj7-34" target="JmTXME2zgX_H3jDaWqj7-33">
          <mxGeometry relative="1" as="geometry" />
        </mxCell>
        <mxCell id="JmTXME2zgX_H3jDaWqj7-34" value="PERTENECE" style="rhombus;whiteSpace=wrap;html=1;fillColor=#F2CC8F;strokeColor=#E07A5F;labelBackgroundColor=none;fontColor=#393C56;" vertex="1" parent="1">
          <mxGeometry x="80" y="210" width="90" height="100" as="geometry" />
        </mxCell>
        <mxCell id="JmTXME2zgX_H3jDaWqj7-40" value="" style="edgeStyle=orthogonalEdgeStyle;rounded=0;orthogonalLoop=1;jettySize=auto;html=1;labelBackgroundColor=none;strokeColor=#E07A5F;fontColor=default;" edge="1" parent="1" source="JmTXME2zgX_H3jDaWqj7-37" target="JmTXME2zgX_H3jDaWqj7-39">
          <mxGeometry relative="1" as="geometry" />
        </mxCell>
        <mxCell id="JmTXME2zgX_H3jDaWqj7-37" value="RECETA" style="swimlane;childLayout=stackLayout;horizontal=1;startSize=50;horizontalStack=0;rounded=1;fontSize=14;fontStyle=0;strokeWidth=2;resizeParent=0;resizeLast=1;shadow=0;dashed=0;align=center;arcSize=4;whiteSpace=wrap;html=1;labelBackgroundColor=none;fillColor=#F2CC8F;strokeColor=#E07A5F;fontColor=#393C56;" vertex="1" parent="1">
          <mxGeometry x="510" y="30" width="160" height="120" as="geometry" />
        </mxCell>
        <mxCell id="JmTXME2zgX_H3jDaWqj7-38" value="&lt;div&gt;DIFICULTAD&lt;span style=&quot;white-space: pre;&quot;&gt;&#x9;&lt;br&gt;&lt;/span&gt;&lt;/div&gt;&lt;div&gt;&lt;span style=&quot;white-space: pre;&quot;&gt;CODIGO&lt;/span&gt;&lt;/div&gt;&lt;div&gt;&lt;span style=&quot;white-space: pre;&quot;&gt;TIEMPO REALIZACION&lt;br&gt;&lt;/span&gt;&lt;/div&gt;&lt;div&gt;&lt;br/&gt;&lt;/div&gt;" style="align=left;strokeColor=none;fillColor=none;spacingLeft=4;spacingRight=4;fontSize=12;verticalAlign=top;resizable=0;rotatable=0;part=1;html=1;whiteSpace=wrap;labelBackgroundColor=none;fontColor=#393C56;" vertex="1" parent="JmTXME2zgX_H3jDaWqj7-37">
          <mxGeometry y="50" width="160" height="70" as="geometry" />
        </mxCell>
        <mxCell id="JmTXME2zgX_H3jDaWqj7-42" value="" style="edgeStyle=orthogonalEdgeStyle;rounded=0;orthogonalLoop=1;jettySize=auto;html=1;entryX=1.025;entryY=0.1;entryDx=0;entryDy=0;entryPerimeter=0;labelBackgroundColor=none;strokeColor=#E07A5F;fontColor=default;" edge="1" parent="1" source="JmTXME2zgX_H3jDaWqj7-39" target="JmTXME2zgX_H3jDaWqj7-31">
          <mxGeometry relative="1" as="geometry">
            <mxPoint x="250" y="100" as="targetPoint" />
          </mxGeometry>
        </mxCell>
        <mxCell id="JmTXME2zgX_H3jDaWqj7-39" value="SIRVE PARA" style="rhombus;whiteSpace=wrap;html=1;fillColor=#F2CC8F;strokeColor=#E07A5F;labelBackgroundColor=none;fontColor=#393C56;" vertex="1" parent="1">
          <mxGeometry x="330" y="60" width="90" height="80" as="geometry" />
        </mxCell>
        <mxCell id="JmTXME2zgX_H3jDaWqj7-47" value="" style="edgeStyle=orthogonalEdgeStyle;rounded=0;orthogonalLoop=1;jettySize=auto;html=1;labelBackgroundColor=none;strokeColor=#E07A5F;fontColor=default;" edge="1" parent="1" source="JmTXME2zgX_H3jDaWqj7-43" target="JmTXME2zgX_H3jDaWqj7-45">
          <mxGeometry relative="1" as="geometry" />
        </mxCell>
        <mxCell id="JmTXME2zgX_H3jDaWqj7-43" value="&lt;div&gt;INGREDIENTES&lt;/div&gt;" style="swimlane;childLayout=stackLayout;horizontal=1;startSize=50;horizontalStack=0;rounded=1;fontSize=14;fontStyle=0;strokeWidth=2;resizeParent=0;resizeLast=1;shadow=0;dashed=0;align=center;arcSize=4;whiteSpace=wrap;html=1;labelBackgroundColor=none;fillColor=#F2CC8F;strokeColor=#E07A5F;fontColor=#393C56;" vertex="1" parent="1">
          <mxGeometry x="520" y="350" width="160" height="120" as="geometry">
            <mxRectangle x="520" y="350" width="150" height="50" as="alternateBounds" />
          </mxGeometry>
        </mxCell>
        <mxCell id="JmTXME2zgX_H3jDaWqj7-53" value="&lt;div align=&quot;left&quot;&gt;NOMBRE&lt;/div&gt;&lt;div align=&quot;left&quot;&gt;FOTO&lt;/div&gt;&lt;div align=&quot;left&quot;&gt;U.MEDIDA&lt;br&gt;&lt;/div&gt;" style="text;html=1;align=left;verticalAlign=middle;resizable=0;points=[];autosize=1;strokeColor=none;fillColor=none;labelBackgroundColor=none;fontColor=#393C56;" vertex="1" parent="JmTXME2zgX_H3jDaWqj7-43">
          <mxGeometry y="50" width="160" height="70" as="geometry" />
        </mxCell>
        <mxCell id="JmTXME2zgX_H3jDaWqj7-48" value="" style="edgeStyle=orthogonalEdgeStyle;rounded=0;orthogonalLoop=1;jettySize=auto;html=1;labelBackgroundColor=none;strokeColor=#E07A5F;fontColor=default;" edge="1" parent="1" source="JmTXME2zgX_H3jDaWqj7-45" target="JmTXME2zgX_H3jDaWqj7-38">
          <mxGeometry relative="1" as="geometry" />
        </mxCell>
        <mxCell id="JmTXME2zgX_H3jDaWqj7-45" value="USA" style="rhombus;whiteSpace=wrap;html=1;fillColor=#F2CC8F;strokeColor=#E07A5F;labelBackgroundColor=none;fontColor=#393C56;" vertex="1" parent="1">
          <mxGeometry x="545" y="210" width="90" height="80" as="geometry" />
        </mxCell>
        <mxCell id="JmTXME2zgX_H3jDaWqj7-49" value="CANTIDAD" style="rounded=0;whiteSpace=wrap;html=1;labelBackgroundColor=none;fillColor=#F2CC8F;strokeColor=#E07A5F;fontColor=#393C56;" vertex="1" parent="1">
          <mxGeometry x="635" y="210" width="80" height="40" as="geometry" />
        </mxCell>
        <mxCell id="JmTXME2zgX_H3jDaWqj7-55" value="1" style="text;html=1;align=center;verticalAlign=middle;resizable=0;points=[];autosize=1;strokeColor=none;fillColor=none;fontColor=#393C56;" vertex="1" parent="1">
          <mxGeometry x="480" y="40" width="30" height="30" as="geometry" />
        </mxCell>
        <mxCell id="JmTXME2zgX_H3jDaWqj7-56" value="N" style="text;html=1;align=center;verticalAlign=middle;resizable=0;points=[];autosize=1;strokeColor=none;fillColor=none;fontColor=#393C56;" vertex="1" parent="1">
          <mxGeometry x="590" y="150" width="30" height="30" as="geometry" />
        </mxCell>
        <mxCell id="JmTXME2zgX_H3jDaWqj7-57" value="M" style="text;html=1;align=center;verticalAlign=middle;resizable=0;points=[];autosize=1;strokeColor=none;fillColor=none;fontColor=#393C56;" vertex="1" parent="1">
          <mxGeometry x="610" y="320" width="30" height="30" as="geometry" />
        </mxCell>
        <mxCell id="JmTXME2zgX_H3jDaWqj7-60" value="1" style="text;html=1;align=center;verticalAlign=middle;resizable=0;points=[];autosize=1;strokeColor=none;fillColor=none;fontColor=#393C56;" vertex="1" parent="1">
          <mxGeometry x="130" y="330" width="30" height="30" as="geometry" />
        </mxCell>
        <mxCell id="JmTXME2zgX_H3jDaWqj7-61" value="1" style="text;html=1;align=center;verticalAlign=middle;resizable=0;points=[];autosize=1;strokeColor=none;fillColor=none;fontColor=#393C56;" vertex="1" parent="1">
          <mxGeometry x="210" y="40" width="30" height="30" as="geometry" />
        </mxCell>
        <mxCell id="JmTXME2zgX_H3jDaWqj7-62" value="N" style="text;html=1;align=center;verticalAlign=middle;resizable=0;points=[];autosize=1;strokeColor=none;fillColor=none;fontColor=#393C56;" vertex="1" parent="1">
          <mxGeometry x="140" y="160" width="30" height="30" as="geometry" />
        </mxCell>
      </root>
    </mxGraphModel>
  </diagram>
</mxfile>
